<svg version="1.1" id="Layer_1" xmlns="http://www.w3.org/2000/svg" xmlns:xlink="http://www.w3.org/1999/xlink" x="0px" y="0px"
	 width="100%" viewBox="0 0 1200 1200" enable-background="new 0 0 1200 1200" xml:space="preserve">
<path fill="#80A0DC" opacity="1.000000" stroke="none" 
	d="
M754.000000,1201.000000 
	C502.666656,1201.000000 251.833328,1201.000000 1.000000,1201.000000 
	C1.000000,801.000000 1.000000,401.000000 1.000000,1.000000 
	C401.000000,1.000000 801.000000,1.000000 1201.000000,1.000000 
	C1201.000000,401.000000 1201.000000,801.000000 1201.000000,1201.000000 
	C1052.166626,1201.000000 903.333313,1201.000000 754.000000,1201.000000 
M922.296692,730.147095 
	C937.563416,679.719666 941.461975,628.426025 932.456604,576.509033 
	C917.658264,491.194885 876.725220,420.706543 808.398254,367.462097 
	C730.146484,306.483582 641.074890,284.080414 543.273254,300.700592 
	C461.410400,314.612152 393.746887,354.614838 341.050903,418.828522 
	C292.480347,478.015076 267.531097,546.402100 265.078949,622.916321 
	C263.900146,659.698303 269.268127,695.641968 278.923920,730.906799 
	C246.860062,730.906799 214.796204,730.906799 182.316406,730.906799 
	C182.729141,796.312439 196.151016,857.808533 223.766754,916.027283 
	C259.999969,992.413269 313.811432,1053.403442 386.120026,1097.375488 
	C529.725159,1184.704224 709.369934,1177.985474 843.561768,1078.727295 
	C959.794617,992.752991 1015.476685,875.049316 1020.348389,730.846375 
	C986.725647,730.846375 954.443726,730.846375 922.296692,730.147095 
z"/>
<path fill="#FAFBFB" opacity="1.000000" stroke="none" 
	d="
M922.161804,730.846375 
	C954.443726,730.846375 986.725647,730.846375 1020.348389,730.846375 
	C1015.476685,875.049316 959.794617,992.752991 843.561768,1078.727295 
	C709.369934,1177.985474 529.725159,1184.704224 386.120026,1097.375488 
	C313.811432,1053.403442 259.999969,992.413269 223.766754,916.027283 
	C196.151016,857.808533 182.729141,796.312439 182.316406,730.906799 
	C214.796204,730.906799 246.860062,730.906799 279.827576,730.915405 
	C282.820038,730.905762 284.908844,730.887573 287.469055,730.897522 
	C496.129028,730.932556 704.317627,730.939514 912.506165,730.943237 
	C913.338318,730.943237 914.170410,730.895020 915.448730,730.899048 
	C917.983887,730.901306 920.072876,730.873840 922.161804,730.846375 
M723.202515,852.021301 
	C723.429321,852.177979 723.656067,852.334595 723.780823,853.247742 
	C722.553955,856.696167 721.025879,860.072693 720.180786,863.612244 
	C719.244202,867.535522 718.816162,871.809326 722.402771,874.750549 
	C726.023438,877.719666 730.243530,876.732788 733.620300,874.447571 
	C742.145508,868.678162 750.390564,862.493103 758.707825,856.419739 
	C760.074341,855.421814 761.237915,854.145996 762.850586,852.674377 
	C763.653748,856.612427 764.082153,859.758179 764.950623,862.777466 
	C767.703735,872.348694 773.158020,875.727295 782.203979,871.680054 
	C789.195435,868.551941 795.174927,863.193604 801.704224,858.981628 
	C803.669128,857.714111 805.888611,856.403931 808.130249,856.083313 
	C815.353943,855.049927 822.054993,853.073486 827.851929,848.374878 
	C830.648743,846.108093 830.934448,843.971680 828.610107,841.045715 
	C823.553162,843.350830 819.067444,847.747559 812.201782,845.913818 
	C813.298340,843.565491 814.263184,841.677490 815.073242,839.725220 
	C816.472717,836.352539 818.525391,833.019287 818.895752,829.520386 
	C819.224426,826.415039 818.606445,821.977905 816.589600,820.253174 
	C815.032043,818.921143 809.873657,819.875427 807.705017,821.580017 
	C803.084778,825.211792 798.931335,829.667664 795.410583,834.398987 
	C792.303711,838.574158 790.696289,843.589417 793.278381,848.984375 
	C793.655762,849.772766 793.293762,851.230713 792.778809,852.078003 
	C789.964539,856.708557 784.199463,859.695496 780.777100,858.476807 
	C777.064697,857.154785 774.606384,852.604309 775.394226,846.645935 
	C775.773926,843.775024 777.161499,840.526001 779.146423,838.460999 
	C793.110901,823.933472 807.760498,810.043152 821.305847,795.144348 
	C827.000183,788.880981 830.843506,780.824707 834.929077,773.259949 
	C836.698242,769.984314 837.681580,765.001465 833.830017,762.877930 
	C831.581482,761.638184 827.021057,762.838501 824.354980,764.399780 
	C809.570618,773.057434 796.756714,784.214172 785.623474,797.200317 
	C774.390442,810.302734 765.835571,824.809082 763.728333,842.394531 
	C763.616638,843.327454 763.362915,844.637390 762.714905,845.051331 
	C756.007996,849.336548 749.328369,853.699280 742.336914,857.477478 
	C740.777527,858.320129 737.221252,857.692200 736.062927,856.407837 
	C734.971191,855.197205 735.049194,851.796875 735.979553,850.116882 
	C738.462158,845.633484 741.523926,841.438110 744.646118,837.350220 
	C748.303650,832.561462 751.233398,827.924988 745.370300,822.826904 
	C750.620056,819.041321 750.601501,815.342041 745.263306,812.583374 
	C742.898682,811.361389 739.715332,810.632690 737.143494,811.074951 
	C716.201233,814.675537 697.504700,823.074890 683.866089,839.828857 
	C677.570862,847.562134 669.960999,853.146301 661.662415,857.966309 
	C658.107361,860.031189 653.548035,860.367249 649.445007,861.488770 
	C649.248230,860.911255 649.051392,860.333740 648.854614,859.756287 
	C651.500854,857.599548 654.254028,855.560120 656.773193,853.263916 
	C664.106506,846.579651 669.097778,838.659973 667.985657,828.294556 
	C667.313416,822.030212 666.112732,815.785278 664.571533,809.677490 
	C664.184143,808.142212 661.721313,806.435730 659.956116,806.080322 
	C655.611938,805.205933 651.968811,808.268494 650.098267,812.797180 
	C649.010498,815.430847 647.502808,818.157898 645.468506,820.089172 
	C634.473450,830.527893 623.036133,840.508118 612.212463,851.116821 
	C607.381104,855.852112 602.183167,859.266235 595.641052,860.578552 
	C593.892090,860.929443 592.012939,860.631653 589.376526,860.631653 
	C593.877197,856.654419 597.690491,853.679016 601.034485,850.246460 
	C607.711182,843.392639 610.572754,835.102417 609.050903,825.548889 
	C608.239136,820.452637 607.114563,815.406494 606.149231,810.334229 
	C605.549072,807.180664 603.559875,805.846252 600.468750,805.916809 
	C596.135498,806.015625 593.584961,808.367004 591.647339,812.129333 
	C589.965637,815.395020 588.019531,818.761963 585.407410,821.268311 
	C576.151001,830.149658 566.550476,838.672058 557.103699,847.355896 
	C555.635071,848.705933 553.833435,849.957825 552.972046,851.654297 
	C550.437439,856.645813 545.811523,857.391113 541.175293,857.625671 
	C537.861267,857.793396 534.325256,857.056396 533.097412,853.115356 
	C531.966736,849.485962 533.695679,847.239197 536.393738,844.617432 
	C542.794861,838.397522 549.099976,831.912659 554.358154,824.739014 
	C558.128967,819.594421 555.046814,815.468201 548.514771,815.760315 
	C546.894958,815.832764 545.209778,816.265442 543.709229,816.898743 
	C529.682922,822.817566 517.769287,842.159729 518.801025,857.200195 
	C519.829651,872.196716 530.447144,878.246155 543.451477,870.880249 
	C548.887512,867.801086 553.755859,863.719727 559.076782,859.956604 
	C559.336487,860.263794 559.788818,860.722656 560.154541,861.242493 
	C568.922363,873.704163 582.995117,877.561401 596.655090,870.886475 
	C601.262512,868.635132 605.517151,865.634888 609.830872,862.820312 
	C612.249512,861.242126 614.458984,859.343506 616.797363,857.562866 
	C626.421753,874.054199 641.630554,878.554138 657.942017,869.601074 
	C664.024597,866.262390 669.407227,861.647217 675.101440,857.603394 
	C676.223877,856.806335 677.311646,855.960510 678.278259,855.239441 
	C680.076599,858.607239 681.373779,861.714661 683.248169,864.422485 
	C689.463867,873.401917 692.906799,874.069824 701.595093,867.723938 
	C708.718628,862.520935 715.567444,856.941650 723.202515,852.021301 
M473.573578,776.033081 
	C481.280853,776.373840 482.578369,778.750793 478.444000,785.144958 
	C477.273407,786.955322 475.925171,788.673645 474.494598,790.289124 
	C467.536804,798.145935 460.145203,805.653381 453.631927,813.859741 
	C446.543884,822.790222 438.136230,828.521240 426.511932,829.208374 
	C423.572418,829.382141 420.710052,830.650879 417.777710,831.246643 
	C416.370026,831.532593 414.841370,831.674011 413.437622,831.447021 
	C408.497742,830.648132 403.446960,835.260925 402.358887,841.736694 
	C401.586365,846.334595 404.302979,849.299927 410.149689,849.898438 
	C412.671539,850.156555 415.241791,849.941711 418.722260,849.941711 
	C414.138702,856.001953 410.134949,860.878845 406.614471,866.082642 
	C403.808319,870.230469 405.007080,873.628540 409.307190,876.027405 
	C413.851532,878.562561 416.438477,875.765198 418.978088,872.664551 
	C424.989990,865.324280 430.982147,857.967468 437.058258,850.680725 
	C437.974884,849.581299 439.196838,848.212524 440.450989,848.002197 
	C449.733398,846.445007 459.059723,845.149597 469.110504,843.662781 
	C467.790741,846.456787 466.685822,848.330688 465.994232,850.346497 
	C463.847717,856.603088 461.235992,862.794067 459.996826,869.239624 
	C458.927643,874.800781 462.301636,876.903564 467.606598,874.755066 
	C471.728882,873.085510 475.738556,871.138000 479.952301,869.244873 
	C479.952301,868.808655 480.129120,868.097656 479.925323,867.521301 
	C477.502197,860.669312 480.453491,855.183838 483.501221,849.185303 
	C487.812134,840.700562 494.637665,844.212769 500.846710,844.150940 
	C501.334625,844.146118 501.876068,844.521973 502.302765,844.401794 
	C503.179169,844.154968 504.255493,843.914734 504.795105,843.283386 
	C510.592987,836.500000 516.302185,829.640747 522.929016,821.736816 
	C515.983459,820.520813 509.178009,819.329346 501.970459,818.067505 
	C503.226929,816.498169 504.444275,814.983032 505.656036,813.463440 
	C512.924988,804.347961 520.450500,795.419739 527.321716,786.013733 
	C529.746033,782.695068 531.192139,778.320007 531.935547,774.218994 
	C532.577271,770.678589 529.826172,769.350281 526.851318,771.526001 
	C524.599548,773.172852 522.612915,775.292358 520.847473,777.475769 
	C510.584045,790.169373 500.437622,802.957642 490.197571,815.670227 
	C489.200470,816.908081 487.950348,818.600159 486.622040,818.803650 
	C479.300262,819.925110 471.917725,820.649597 464.556000,821.510193 
	C469.183411,814.963318 474.640533,809.672302 479.572205,803.929932 
	C484.971161,797.643372 490.891388,791.486023 494.790131,784.299011 
	C501.849396,771.285828 494.696259,760.016296 479.990143,759.581421 
	C476.836487,759.488098 473.655273,759.662231 470.512360,759.972473 
	C445.207062,762.470581 421.427063,770.216492 398.254456,780.425049 
	C387.553528,785.139343 384.580505,793.886780 383.839508,804.071533 
	C383.332031,811.046082 387.285919,813.356018 393.631378,810.421692 
	C401.175232,806.933228 408.671173,803.333740 416.292542,800.023376 
	C419.712189,798.538025 422.840088,797.283386 420.485870,792.614197 
	C437.880890,785.903442 454.618103,778.845520 473.573578,776.033081 
M563.617859,792.893311 
	C558.446960,793.884949 554.451843,796.519897 552.040283,801.292175 
	C550.373779,804.589966 550.311584,808.357971 553.349792,810.242859 
	C555.572083,811.621582 560.086975,812.196716 561.822144,810.855591 
	C565.238281,808.215271 568.256409,804.335327 569.913513,800.335999 
	C571.787903,795.812195 569.711060,793.718323 563.617859,792.893311 
z"/>
<path fill="#F3E1C5" opacity="1.000000" stroke="none" 
	d="
M286.997650,730.869385 
	C284.908844,730.887573 282.820038,730.905762 280.285156,730.884888 
	C269.268127,695.641968 263.900146,659.698303 265.078949,622.916321 
	C267.531097,546.402100 292.480347,478.015076 341.050903,418.828522 
	C393.746887,354.614838 461.410400,314.612152 543.273254,300.700592 
	C641.074890,284.080414 730.146484,306.483582 808.398254,367.462097 
	C876.725220,420.706543 917.658264,491.194885 932.456604,576.509033 
	C941.461975,628.426025 937.563416,679.719666 922.229248,730.496704 
	C920.072876,730.873840 917.983887,730.901306 915.558228,730.548767 
	C930.774048,680.673828 934.580200,630.246033 926.068665,579.112976 
	C912.095947,495.173035 872.078308,425.879364 805.200623,373.376984 
	C728.400940,313.085266 640.799744,290.944427 544.509766,307.256378 
	C464.537384,320.804047 398.434265,359.799713 346.737549,422.330109 
	C302.792572,475.484192 278.296814,536.816772 272.744629,605.608887 
	C269.300720,648.279053 273.981567,690.056335 286.997650,730.869385 
z"/>
<path fill="#80A0DC" opacity="1.000000" stroke="none" 
	d="
M287.469055,730.897522 
	C273.981567,690.056335 269.300720,648.279053 272.744629,605.608887 
	C278.296814,536.816772 302.792572,475.484192 346.737549,422.330109 
	C398.434265,359.799713 464.537384,320.804047 544.509766,307.256378 
	C640.799744,290.944427 728.400940,313.085266 805.200623,373.376984 
	C872.078308,425.879364 912.095947,495.173035 926.068665,579.112976 
	C934.580200,630.246033 930.774048,680.673828 915.112061,730.519043 
	C914.170410,730.895020 913.338318,730.943237 912.506165,730.943237 
	C704.317627,730.939514 496.129028,730.932556 287.469055,730.897522 
M591.675415,574.987366 
	C592.883545,574.466492 594.163696,574.068115 595.289185,573.406677 
	C617.768372,560.195312 629.738525,539.786926 634.976257,514.917114 
	C636.594849,507.231720 637.630615,506.011597 645.447083,505.997223 
	C657.777344,505.974579 670.108887,505.897736 682.437256,506.053375 
	C685.736816,506.095032 687.868530,505.189972 688.804016,501.890167 
	C689.256104,500.295593 690.003113,498.785278 690.606140,497.232758 
	C692.856018,491.440643 692.544739,490.915222 686.462402,490.900391 
	C672.632507,490.866699 658.802490,490.903259 644.972534,490.880371 
	C637.706848,490.868378 637.128479,490.073181 635.323059,482.966705 
	C633.156372,474.438202 630.429443,466.053345 628.050476,457.576721 
	C627.140259,454.333405 626.521179,451.008362 625.774963,447.745087 
	C622.152893,446.701263 618.016357,445.388763 613.804810,444.393066 
	C612.921204,444.184174 611.637390,444.963837 610.748962,445.588165 
	C602.082947,451.678406 596.573059,451.543762 587.939453,445.659546 
	C586.079834,444.392090 583.117981,443.973450 580.809448,444.275818 
	C573.603577,445.219543 567.252197,444.654938 562.788452,437.897339 
	C561.973267,436.663269 560.235046,435.832764 558.750000,435.283051 
	C552.350403,432.914246 549.315613,428.225739 548.946899,421.611725 
	C548.809753,419.151276 549.392639,415.929230 545.569641,416.347168 
	C541.613892,416.779602 536.095398,413.445984 534.308044,420.229950 
	C532.441528,427.314362 530.817322,434.468292 528.743042,441.490143 
	C527.553589,445.516632 528.515625,446.975800 532.767212,446.914062 
	C543.429016,446.759155 554.099854,446.679260 564.755920,446.972992 
	C568.658997,447.080536 572.879456,447.572540 576.356689,449.182007 
	C591.726685,456.296143 597.844360,470.232758 601.583435,485.508850 
	C601.904907,486.822113 599.554932,489.344849 597.877686,490.416229 
	C596.533813,491.274567 594.327026,490.872559 592.503052,490.874664 
	C571.674805,490.898895 550.846069,490.830444 530.019104,490.994476 
	C527.970581,491.010620 524.966309,491.816742 524.081299,493.273865 
	C521.902771,496.860718 520.700623,501.040588 518.695923,505.995209 
	C521.344360,505.995209 522.931091,505.995300 524.517822,505.995178 
	C546.179199,505.993347 567.840576,505.988586 589.501953,505.990753 
	C601.147705,505.991943 602.834717,507.974396 598.749817,518.900146 
	C593.234802,533.650635 585.667603,546.762695 568.544434,550.734253 
	C567.533997,550.968567 566.227722,552.806396 566.198303,553.927917 
	C565.992859,561.753601 565.976257,569.590515 566.220642,577.413879 
	C566.253235,578.457092 568.118103,580.338318 569.098145,580.314880 
	C576.754395,580.131592 584.382996,579.502991 590.970215,574.999084 
	C590.970215,574.999084 590.936401,575.032471 591.675415,574.987366 
M621.406860,654.075012 
	C618.385132,651.853699 617.401794,646.551636 611.530518,648.758789 
	C603.197388,651.891418 599.060852,650.264343 593.237366,643.235840 
	C592.154053,641.928345 590.546204,640.599670 588.960754,640.234314 
	C572.153809,636.361389 566.326660,622.637573 575.399170,608.123047 
	C576.016235,607.135864 576.667175,605.234863 576.197449,604.656860 
	C573.377380,601.187073 570.233948,597.980164 567.198853,594.685181 
	C566.022339,597.144287 566.085266,598.795471 566.011353,600.440491 
	C565.722839,606.860901 562.664429,611.622742 556.809692,614.135315 
	C547.299255,618.216492 536.852173,611.435364 536.793213,600.903870 
	C536.762451,595.402039 536.511475,590.963684 529.698547,590.274353 
	C528.693542,590.172668 527.365540,589.244934 526.914124,588.337585 
	C523.743530,581.965515 517.650452,583.467224 511.100647,582.095337 
	C512.782715,584.505310 513.627502,586.029480 514.762207,587.293274 
	C527.218262,601.166260 539.856262,614.878723 552.160583,628.884399 
	C560.370361,638.229370 564.467285,648.931824 561.019104,661.599609 
	C560.553772,663.309204 560.228394,665.386536 560.784912,666.958435 
	C561.431213,668.783997 562.844299,670.954834 564.464661,671.583557 
	C565.411987,671.951111 567.597900,669.773621 568.882385,668.415527 
	C569.872192,667.368958 570.371765,665.836914 571.010071,664.483337 
	C574.465088,657.156860 577.530945,656.705933 582.900574,663.001953 
	C584.950745,665.405762 586.574646,666.369995 589.405090,663.938660 
	C594.790466,659.312439 600.875793,659.634460 607.283264,661.792786 
	C609.898865,662.673889 612.957581,663.144714 615.649414,662.729980 
	C624.839539,661.313904 630.497192,665.671204 630.933105,675.084534 
	C631.040955,677.412231 630.783569,679.774719 631.093872,682.067078 
	C631.237244,683.126099 632.299194,684.873230 633.017578,684.910645 
	C637.874756,685.163757 642.751465,685.042786 647.621826,685.042786 
	C647.811035,684.583130 648.000244,684.123474 648.189453,683.663818 
	C639.427612,673.970032 630.665833,664.276306 621.406860,654.075012 
M501.688629,446.030151 
	C501.565155,443.278809 502.441650,441.746735 505.631683,441.704102 
	C509.881439,441.647308 515.451843,442.579956 518.015625,440.320160 
	C520.867126,437.806732 520.977417,432.183014 522.279602,427.912903 
	C522.376587,427.594696 522.459900,427.272339 522.551514,426.952423 
	C523.604126,423.276886 522.719543,421.109955 518.395691,421.299194 
	C515.406494,421.430054 512.379211,421.056793 509.417664,421.369751 
	C504.384766,421.901550 501.586548,420.790863 501.106567,414.866455 
	C500.656830,409.315002 496.499207,406.584137 490.967316,406.567078 
	C486.572052,406.553528 482.837128,409.699615 481.806488,414.283661 
	C480.789642,418.806183 483.104584,423.929047 487.764252,425.658356 
	C491.035248,426.872345 491.479340,428.858490 491.460968,431.745300 
	C491.443237,434.533295 490.687103,436.239563 487.753418,437.355225 
	C482.592621,439.317871 480.368011,444.617859 482.068146,449.558289 
	C483.625214,454.082916 486.971344,456.119812 491.605835,456.114716 
	C496.850891,456.108948 499.721252,453.379517 501.688629,446.030151 
M597.288818,439.620972 
	C599.384766,439.138672 601.480713,438.656403 603.576599,438.174194 
	C602.617554,436.561615 601.948486,434.644531 600.640198,433.398804 
	C597.768188,430.664154 598.758240,428.670013 601.098450,426.300354 
	C603.669067,423.697540 605.691223,423.799591 608.137024,426.487030 
	C610.590393,429.182770 613.217468,431.794922 616.103760,434.005829 
	C621.191101,437.902710 626.557434,437.621368 630.122864,433.573456 
	C629.550171,433.213043 629.040588,432.710236 628.437927,432.543091 
	C624.974060,431.582458 624.832092,429.563843 625.823975,426.452972 
	C626.865723,423.185577 628.613770,422.113525 631.739014,423.064728 
	C634.440186,423.886902 637.054749,425.114594 639.807068,425.604279 
	C641.587036,425.920959 644.750305,425.777069 645.159912,424.872833 
	C645.886780,423.268463 645.615906,420.499725 644.597778,419.018860 
	C643.593750,417.558411 641.151489,416.316254 639.331177,416.303680 
	C614.210571,416.130341 589.088257,416.149902 563.967102,416.271973 
	C562.395447,416.279602 559.817017,417.213806 559.487061,418.271973 
	C558.922546,420.082855 559.094543,422.815765 560.158936,424.299377 
	C562.447266,427.489014 565.643494,426.391510 568.660095,424.851501 
	C573.497803,422.381805 576.700256,423.899719 576.975281,429.212463 
	C577.064880,430.942719 575.177734,432.775269 574.194641,434.561035 
	C582.976074,430.145782 590.355408,431.987061 597.288818,439.620972 
M720.289429,417.983368 
	C720.059570,410.692474 717.005737,406.873901 711.144165,406.547913 
	C705.753784,406.248108 700.993652,410.512207 700.453613,416.894745 
	C700.158813,420.378357 698.909546,421.814545 695.584595,421.289246 
	C689.730774,420.364441 686.898010,422.987244 686.354736,428.691345 
	C686.214844,430.160248 685.555420,431.572906 685.220032,433.031067 
	C683.213013,441.759705 683.233337,442.044464 692.378052,441.657562 
	C697.628906,441.435425 700.669434,442.108612 700.943054,448.440002 
	C701.148071,453.185089 706.668213,456.709503 711.443665,456.503815 
	C715.229309,456.340759 719.403320,452.365662 720.242859,448.123993 
	C721.085999,443.864075 718.655029,438.665955 714.285767,437.212006 
	C710.824585,436.060272 710.768738,433.879089 710.696594,431.098175 
	C710.625366,428.356049 711.278870,426.862274 714.147278,425.480743 
	C716.643555,424.278442 718.160217,421.042267 720.289429,417.983368 
M530.598389,550.847473 
	C524.460449,550.353271 518.950928,551.693909 514.887512,556.655640 
	C514.039856,557.690613 513.162109,559.424561 513.453491,560.532532 
	C514.315979,563.811829 515.615295,567.004395 517.043396,570.092285 
	C517.576782,571.245422 518.999390,572.821472 519.905640,572.752258 
	C520.985413,572.669739 522.278748,571.197266 522.882446,570.020630 
	C523.860657,568.114075 524.454224,565.985901 525.026306,563.900818 
	C525.931152,560.603394 527.326599,559.262390 531.118103,560.617249 
	C534.825562,561.942017 535.898621,563.677124 534.462830,567.270752 
	C533.414551,569.894348 531.974731,572.610229 531.930908,575.304810 
	C531.898010,577.326416 533.808044,579.379578 534.853027,581.418701 
	C536.106445,580.167603 537.501526,579.024048 538.562073,577.626587 
	C539.235596,576.738953 539.547241,575.502686 539.785950,574.372986 
	C540.514526,570.926575 541.683716,569.115356 545.937988,570.453857 
	C550.118225,571.769226 550.234192,573.612976 549.376831,577.421509 
	C547.860229,584.158325 547.036316,591.074829 546.316589,597.957336 
	C545.956177,601.403259 546.797852,605.280151 551.114014,605.357971 
	C555.484192,605.436829 556.048645,601.681885 556.049988,598.127625 
	C556.055481,583.961670 555.957092,569.794556 556.117920,555.630432 
	C556.161194,551.815918 554.631165,550.705627 551.069885,550.802734 
	C544.575073,550.979980 538.071960,550.849304 530.598389,550.847473 
M654.496765,446.877045 
	C658.822205,446.873108 663.179810,447.171173 667.457397,446.716797 
	C669.172302,446.534607 671.729126,445.002167 672.160522,443.562347 
	C674.446899,435.930756 676.141479,428.123566 678.121948,420.397919 
	C678.931580,417.239380 677.667297,416.123230 674.615051,416.172760 
	C669.625488,416.253723 664.630615,416.298370 659.643738,416.156616 
	C656.302124,416.061646 655.438416,417.255188 655.808899,420.632904 
	C656.653015,428.328613 653.844299,432.150146 648.014832,435.120483 
	C642.291199,438.036926 637.122620,442.042755 631.710388,445.570526 
	C631.882935,446.005951 632.055481,446.441376 632.227966,446.876801 
	C639.317932,446.876801 646.407898,446.876801 654.496765,446.877045 
M678.027893,540.310669 
	C679.482788,532.479553 680.937622,524.648499 682.471741,516.390503 
	C675.996765,516.390503 670.986084,516.390503 666.778809,516.390503 
	C668.251038,524.397339 669.596497,532.150024 671.127136,539.865906 
	C671.956055,544.044617 673.921997,544.308594 678.027893,540.310669 
M595.946655,671.342224 
	C593.405151,672.850708 593.786926,674.438110 595.383972,676.603516 
	C599.862183,682.675232 604.992188,686.285767 613.265442,685.361694 
	C621.154297,684.480591 621.231384,685.170898 620.989258,677.306519 
	C620.838074,672.395630 619.722473,671.526550 615.328125,673.781372 
	C611.835144,675.573853 609.195618,674.973755 606.216553,672.735474 
	C603.450378,670.657227 600.318909,668.813538 595.946655,671.342224 
z"/>
<path fill="#3466D8" opacity="1.000000" stroke="none" 
	d="
M722.538025,851.529236 
	C715.567444,856.941650 708.718628,862.520935 701.595093,867.723938 
	C692.906799,874.069824 689.463867,873.401917 683.248169,864.422485 
	C681.373779,861.714661 680.076599,858.607239 678.278259,855.239441 
	C677.311646,855.960510 676.223877,856.806335 675.101440,857.603394 
	C669.407227,861.647217 664.024597,866.262390 657.942017,869.601074 
	C641.630554,878.554138 626.421753,874.054199 616.797363,857.562866 
	C614.458984,859.343506 612.249512,861.242126 609.830872,862.820312 
	C605.517151,865.634888 601.262512,868.635132 596.655090,870.886475 
	C582.995117,877.561401 568.922363,873.704163 560.154541,861.242493 
	C559.788818,860.722656 559.336487,860.263794 559.076782,859.956604 
	C553.755859,863.719727 548.887512,867.801086 543.451477,870.880249 
	C530.447144,878.246155 519.829651,872.196716 518.801025,857.200195 
	C517.769287,842.159729 529.682922,822.817566 543.709229,816.898743 
	C545.209778,816.265442 546.894958,815.832764 548.514771,815.760315 
	C555.046814,815.468201 558.128967,819.594421 554.358154,824.739014 
	C549.099976,831.912659 542.794861,838.397522 536.393738,844.617432 
	C533.695679,847.239197 531.966736,849.485962 533.097412,853.115356 
	C534.325256,857.056396 537.861267,857.793396 541.175293,857.625671 
	C545.811523,857.391113 550.437439,856.645813 552.972046,851.654297 
	C553.833435,849.957825 555.635071,848.705933 557.103699,847.355896 
	C566.550476,838.672058 576.151001,830.149658 585.407410,821.268311 
	C588.019531,818.761963 589.965637,815.395020 591.647339,812.129333 
	C593.584961,808.367004 596.135498,806.015625 600.468750,805.916809 
	C603.559875,805.846252 605.549072,807.180664 606.149231,810.334229 
	C607.114563,815.406494 608.239136,820.452637 609.050903,825.548889 
	C610.572754,835.102417 607.711182,843.392639 601.034485,850.246460 
	C597.690491,853.679016 593.877197,856.654419 589.376526,860.631653 
	C592.012939,860.631653 593.892090,860.929443 595.641052,860.578552 
	C602.183167,859.266235 607.381104,855.852112 612.212463,851.116821 
	C623.036133,840.508118 634.473450,830.527893 645.468506,820.089172 
	C647.502808,818.157898 649.010498,815.430847 650.098267,812.797180 
	C651.968811,808.268494 655.611938,805.205933 659.956116,806.080322 
	C661.721313,806.435730 664.184143,808.142212 664.571533,809.677490 
	C666.112732,815.785278 667.313416,822.030212 667.985657,828.294556 
	C669.097778,838.659973 664.106506,846.579651 656.773193,853.263916 
	C654.254028,855.560120 651.500854,857.599548 648.854614,859.756287 
	C649.051392,860.333740 649.248230,860.911255 649.445007,861.488770 
	C653.548035,860.367249 658.107361,860.031189 661.662415,857.966309 
	C669.960999,853.146301 677.570862,847.562134 683.866089,839.828857 
	C697.504700,823.074890 716.201233,814.675537 737.143494,811.074951 
	C739.715332,810.632690 742.898682,811.361389 745.263306,812.583374 
	C750.601501,815.342041 750.620056,819.041321 745.370300,822.826904 
	C751.233398,827.924988 748.303650,832.561462 744.646118,837.350220 
	C741.523926,841.438110 738.462158,845.633484 735.979553,850.116882 
	C735.049194,851.796875 734.971191,855.197205 736.062927,856.407837 
	C737.221252,857.692200 740.777527,858.320129 742.336914,857.477478 
	C749.328369,853.699280 756.007996,849.336548 762.714905,845.051331 
	C763.362915,844.637390 763.616638,843.327454 763.728333,842.394531 
	C765.835571,824.809082 774.390442,810.302734 785.623474,797.200317 
	C796.756714,784.214172 809.570618,773.057434 824.354980,764.399780 
	C827.021057,762.838501 831.581482,761.638184 833.830017,762.877930 
	C837.681580,765.001465 836.698242,769.984314 834.929077,773.259949 
	C830.843506,780.824707 827.000183,788.880981 821.305847,795.144348 
	C807.760498,810.043152 793.110901,823.933472 779.146423,838.460999 
	C777.161499,840.526001 775.773926,843.775024 775.394226,846.645935 
	C774.606384,852.604309 777.064697,857.154785 780.777100,858.476807 
	C784.199463,859.695496 789.964539,856.708557 792.778809,852.078003 
	C793.293762,851.230713 793.655762,849.772766 793.278381,848.984375 
	C790.696289,843.589417 792.303711,838.574158 795.410583,834.398987 
	C798.931335,829.667664 803.084778,825.211792 807.705017,821.580017 
	C809.873657,819.875427 815.032043,818.921143 816.589600,820.253174 
	C818.606445,821.977905 819.224426,826.415039 818.895752,829.520386 
	C818.525391,833.019287 816.472717,836.352539 815.073242,839.725220 
	C814.263184,841.677490 813.298340,843.565491 812.201782,845.913818 
	C819.067444,847.747559 823.553162,843.350830 828.610107,841.045715 
	C830.934448,843.971680 830.648743,846.108093 827.851929,848.374878 
	C822.054993,853.073486 815.353943,855.049927 808.130249,856.083313 
	C805.888611,856.403931 803.669128,857.714111 801.704224,858.981628 
	C795.174927,863.193604 789.195435,868.551941 782.203979,871.680054 
	C773.158020,875.727295 767.703735,872.348694 764.950623,862.777466 
	C764.082153,859.758179 763.653748,856.612427 762.850586,852.674377 
	C761.237915,854.145996 760.074341,855.421814 758.707825,856.419739 
	C750.390564,862.493103 742.145508,868.678162 733.620300,874.447571 
	C730.243530,876.732788 726.023438,877.719666 722.402771,874.750549 
	C718.816162,871.809326 719.244202,867.535522 720.180786,863.612244 
	C721.025879,860.072693 722.553955,856.696167 724.002075,852.563538 
	C723.661499,851.762634 723.099792,851.645935 722.538025,851.529236 
M784.652283,821.880310 
	C797.807129,808.873291 811.200195,796.060059 819.964111,779.415466 
	C818.373901,779.410156 817.257019,779.843506 816.558594,780.642639 
	C807.190857,791.361755 797.758728,802.029602 788.648987,812.965393 
	C786.531250,815.507629 785.560730,819.005554 783.711609,821.960449 
	C783.799866,821.960693 783.888062,821.960938 784.652283,821.880310 
M732.519470,827.783569 
	C721.740356,832.379089 710.740173,836.536621 700.302246,841.807678 
	C696.649719,843.652161 693.906067,847.954224 691.681030,851.690125 
	C690.567627,853.559509 691.553711,856.679260 691.590210,859.233521 
	C694.055420,858.974487 696.620239,859.048462 698.953979,858.349976 
	C700.785706,857.801758 702.526855,856.511230 703.972900,855.184875 
	C713.747620,846.219788 723.433044,837.157349 733.317627,827.848633 
	C733.213745,827.845703 733.109863,827.842773 733.005981,827.839905 
	C733.092957,827.959534 733.179932,828.079163 732.519470,827.783569 
M650.832825,844.995178 
	C652.661316,838.557068 650.966858,832.470032 649.406494,825.556396 
	C641.532776,832.949158 634.313232,839.727722 627.461914,846.160583 
	C631.632812,849.660095 635.485840,852.892883 640.439331,857.049072 
	C643.686951,853.413635 647.120117,849.570496 650.832825,844.995178 
M592.473145,835.093689 
	C591.957092,832.265747 591.441040,829.437744 590.725952,825.519165 
	C582.686523,833.055603 575.526428,839.767761 568.787476,846.085144 
	C573.048462,849.723267 576.768372,852.899414 580.547180,856.125854 
	C590.083679,851.971863 593.910828,845.660278 592.473145,835.093689 
z"/>
<path fill="#3365D8" opacity="1.000000" stroke="none" 
	d="
M473.157104,776.079834 
	C454.618103,778.845520 437.880890,785.903442 420.485870,792.614197 
	C422.840088,797.283386 419.712189,798.538025 416.292542,800.023376 
	C408.671173,803.333740 401.175232,806.933228 393.631378,810.421692 
	C387.285919,813.356018 383.332031,811.046082 383.839508,804.071533 
	C384.580505,793.886780 387.553528,785.139343 398.254456,780.425049 
	C421.427063,770.216492 445.207062,762.470581 470.512360,759.972473 
	C473.655273,759.662231 476.836487,759.488098 479.990143,759.581421 
	C494.696259,760.016296 501.849396,771.285828 494.790131,784.299011 
	C490.891388,791.486023 484.971161,797.643372 479.572205,803.929932 
	C474.640533,809.672302 469.183411,814.963318 464.556000,821.510193 
	C471.917725,820.649597 479.300262,819.925110 486.622040,818.803650 
	C487.950348,818.600159 489.200470,816.908081 490.197571,815.670227 
	C500.437622,802.957642 510.584045,790.169373 520.847473,777.475769 
	C522.612915,775.292358 524.599548,773.172852 526.851318,771.526001 
	C529.826172,769.350281 532.577271,770.678589 531.935547,774.218994 
	C531.192139,778.320007 529.746033,782.695068 527.321716,786.013733 
	C520.450500,795.419739 512.924988,804.347961 505.656036,813.463440 
	C504.444275,814.983032 503.226929,816.498169 501.970459,818.067505 
	C509.178009,819.329346 515.983459,820.520813 522.929016,821.736816 
	C516.302185,829.640747 510.592987,836.500000 504.795105,843.283386 
	C504.255493,843.914734 503.179169,844.154968 502.302765,844.401794 
	C501.876068,844.521973 501.334625,844.146118 500.846710,844.150940 
	C494.637665,844.212769 487.812134,840.700562 483.501221,849.185303 
	C480.453491,855.183838 477.502197,860.669312 479.925323,867.521301 
	C480.129120,868.097656 479.952301,868.808655 479.952301,869.244873 
	C475.738556,871.138000 471.728882,873.085510 467.606598,874.755066 
	C462.301636,876.903564 458.927643,874.800781 459.996826,869.239624 
	C461.235992,862.794067 463.847717,856.603088 465.994232,850.346497 
	C466.685822,848.330688 467.790741,846.456787 469.110504,843.662781 
	C459.059723,845.149597 449.733398,846.445007 440.450989,848.002197 
	C439.196838,848.212524 437.974884,849.581299 437.058258,850.680725 
	C430.982147,857.967468 424.989990,865.324280 418.978088,872.664551 
	C416.438477,875.765198 413.851532,878.562561 409.307190,876.027405 
	C405.007080,873.628540 403.808319,870.230469 406.614471,866.082642 
	C410.134949,860.878845 414.138702,856.001953 418.722260,849.941711 
	C415.241791,849.941711 412.671539,850.156555 410.149689,849.898438 
	C404.302979,849.299927 401.586365,846.334595 402.358887,841.736694 
	C403.446960,835.260925 408.497742,830.648132 413.437622,831.447021 
	C414.841370,831.674011 416.370026,831.532593 417.777710,831.246643 
	C420.710052,830.650879 423.572418,829.382141 426.511932,829.208374 
	C438.136230,828.521240 446.543884,822.790222 453.631927,813.859741 
	C460.145203,805.653381 467.536804,798.145935 474.494598,790.289124 
	C475.925171,788.673645 477.273407,786.955322 478.444000,785.144958 
	C482.578369,778.750793 481.280853,776.373840 473.157104,776.079834 
z"/>
<path fill="#3567D8" opacity="1.000000" stroke="none" 
	d="
M564.026123,792.873535 
	C569.711060,793.718323 571.787903,795.812195 569.913513,800.335999 
	C568.256409,804.335327 565.238281,808.215271 561.822144,810.855591 
	C560.086975,812.196716 555.572083,811.621582 553.349792,810.242859 
	C550.311584,808.357971 550.373779,804.589966 552.040283,801.292175 
	C554.451843,796.519897 558.446960,793.884949 564.026123,792.873535 
z"/>
<path fill="#F6E3C4" opacity="1.000000" stroke="none" 
	d="
M591.008301,574.971008 
	C584.382996,579.502991 576.754395,580.131592 569.098145,580.314880 
	C568.118103,580.338318 566.253235,578.457092 566.220642,577.413879 
	C565.976257,569.590515 565.992859,561.753601 566.198303,553.927917 
	C566.227722,552.806396 567.533997,550.968567 568.544434,550.734253 
	C585.667603,546.762695 593.234802,533.650635 598.749817,518.900146 
	C602.834717,507.974396 601.147705,505.991943 589.501953,505.990753 
	C567.840576,505.988586 546.179199,505.993347 524.517822,505.995178 
	C522.931091,505.995300 521.344360,505.995209 518.695923,505.995209 
	C520.700623,501.040588 521.902771,496.860718 524.081299,493.273865 
	C524.966309,491.816742 527.970581,491.010620 530.019104,490.994476 
	C550.846069,490.830444 571.674805,490.898895 592.503052,490.874664 
	C594.327026,490.872559 596.533813,491.274567 597.877686,490.416229 
	C599.554932,489.344849 601.904907,486.822113 601.583435,485.508850 
	C597.844360,470.232758 591.726685,456.296143 576.356689,449.182007 
	C572.879456,447.572540 568.658997,447.080536 564.755920,446.972992 
	C554.099854,446.679260 543.429016,446.759155 532.767212,446.914062 
	C528.515625,446.975800 527.553589,445.516632 528.743042,441.490143 
	C530.817322,434.468292 532.441528,427.314362 534.308044,420.229950 
	C536.095398,413.445984 541.613892,416.779602 545.569641,416.347168 
	C549.392639,415.929230 548.809753,419.151276 548.946899,421.611725 
	C549.315613,428.225739 552.350403,432.914246 558.750000,435.283051 
	C560.235046,435.832764 561.973267,436.663269 562.788452,437.897339 
	C567.252197,444.654938 573.603577,445.219543 580.809448,444.275818 
	C583.117981,443.973450 586.079834,444.392090 587.939453,445.659546 
	C596.573059,451.543762 602.082947,451.678406 610.748962,445.588165 
	C611.637390,444.963837 612.921204,444.184174 613.804810,444.393066 
	C618.016357,445.388763 622.152893,446.701263 625.774963,447.745087 
	C626.521179,451.008362 627.140259,454.333405 628.050476,457.576721 
	C630.429443,466.053345 633.156372,474.438202 635.323059,482.966705 
	C637.128479,490.073181 637.706848,490.868378 644.972534,490.880371 
	C658.802490,490.903259 672.632507,490.866699 686.462402,490.900391 
	C692.544739,490.915222 692.856018,491.440643 690.606140,497.232758 
	C690.003113,498.785278 689.256104,500.295593 688.804016,501.890167 
	C687.868530,505.189972 685.736816,506.095032 682.437256,506.053375 
	C670.108887,505.897736 657.777344,505.974579 645.447083,505.997223 
	C637.630615,506.011597 636.594849,507.231720 634.976257,514.917114 
	C629.738525,539.786926 617.768372,560.195312 595.289185,573.406677 
	C594.163696,574.068115 592.883545,574.466492 591.405640,574.682373 
	C597.125732,567.530334 600.890381,559.145569 609.065186,553.673828 
	C616.947266,548.398071 618.532166,537.724060 614.931946,530.288025 
	C610.614380,531.155212 605.877441,530.647766 606.462708,537.986389 
	C606.839050,542.706055 603.754028,547.191895 599.053772,548.983398 
	C593.724121,551.014709 590.892578,554.492920 589.019470,559.734253 
	C587.056396,565.227478 585.944885,565.235229 581.750977,561.238831 
	C578.666016,558.299194 576.109741,561.008240 573.718811,562.247986 
	C573.052307,562.593567 573.144775,565.731934 573.828552,567.129517 
	C577.352722,574.332214 583.564270,576.108948 591.008301,574.971008 
z"/>
<path fill="#F5E2C5" opacity="1.000000" stroke="none" 
	d="
M621.655396,654.328735 
	C630.665833,664.276306 639.427612,673.970032 648.189453,683.663818 
	C648.000244,684.123474 647.811035,684.583130 647.621826,685.042786 
	C642.751465,685.042786 637.874756,685.163757 633.017578,684.910645 
	C632.299194,684.873230 631.237244,683.126099 631.093872,682.067078 
	C630.783569,679.774719 631.040955,677.412231 630.933105,675.084534 
	C630.497192,665.671204 624.839539,661.313904 615.649414,662.729980 
	C612.957581,663.144714 609.898865,662.673889 607.283264,661.792786 
	C600.875793,659.634460 594.790466,659.312439 589.405090,663.938660 
	C586.574646,666.369995 584.950745,665.405762 582.900574,663.001953 
	C577.530945,656.705933 574.465088,657.156860 571.010071,664.483337 
	C570.371765,665.836914 569.872192,667.368958 568.882385,668.415527 
	C567.597900,669.773621 565.411987,671.951111 564.464661,671.583557 
	C562.844299,670.954834 561.431213,668.783997 560.784912,666.958435 
	C560.228394,665.386536 560.553772,663.309204 561.019104,661.599609 
	C564.467285,648.931824 560.370361,638.229370 552.160583,628.884399 
	C539.856262,614.878723 527.218262,601.166260 514.762207,587.293274 
	C513.627502,586.029480 512.782715,584.505310 511.100647,582.095337 
	C517.650452,583.467224 523.743530,581.965515 526.914124,588.337585 
	C527.365540,589.244934 528.693542,590.172668 529.698547,590.274353 
	C536.511475,590.963684 536.762451,595.402039 536.793213,600.903870 
	C536.852173,611.435364 547.299255,618.216492 556.809692,614.135315 
	C562.664429,611.622742 565.722839,606.860901 566.011353,600.440491 
	C566.085266,598.795471 566.022339,597.144287 567.198853,594.685181 
	C570.233948,597.980164 573.377380,601.187073 576.197449,604.656860 
	C576.667175,605.234863 576.016235,607.135864 575.399170,608.123047 
	C566.326660,622.637573 572.153809,636.361389 588.960754,640.234314 
	C590.546204,640.599670 592.154053,641.928345 593.237366,643.235840 
	C599.060852,650.264343 603.197388,651.891418 611.530518,648.758789 
	C617.401794,646.551636 618.385132,651.853699 621.655396,654.328735 
z"/>
<path fill="#F5E2C5" opacity="1.000000" stroke="none" 
	d="
M501.633911,446.443176 
	C499.721252,453.379517 496.850891,456.108948 491.605835,456.114716 
	C486.971344,456.119812 483.625214,454.082916 482.068146,449.558289 
	C480.368011,444.617859 482.592621,439.317871 487.753418,437.355225 
	C490.687103,436.239563 491.443237,434.533295 491.460968,431.745300 
	C491.479340,428.858490 491.035248,426.872345 487.764252,425.658356 
	C483.104584,423.929047 480.789642,418.806183 481.806488,414.283661 
	C482.837128,409.699615 486.572052,406.553528 490.967316,406.567078 
	C496.499207,406.584137 500.656830,409.315002 501.106567,414.866455 
	C501.586548,420.790863 504.384766,421.901550 509.417664,421.369751 
	C512.379211,421.056793 515.406494,421.430054 518.395691,421.299194 
	C522.719543,421.109955 523.604126,423.276886 522.551514,426.952423 
	C522.459900,427.272339 522.376587,427.594696 522.279602,427.912903 
	C520.977417,432.183014 520.867126,437.806732 518.015625,440.320160 
	C515.451843,442.579956 509.881439,441.647308 505.631683,441.704102 
	C502.441650,441.746735 501.565155,443.278809 501.633911,446.443176 
z"/>
<path fill="#F3E1C5" opacity="1.000000" stroke="none" 
	d="
M596.942993,439.444641 
	C590.355408,431.987061 582.976074,430.145782 574.194641,434.561035 
	C575.177734,432.775269 577.064880,430.942719 576.975281,429.212463 
	C576.700256,423.899719 573.497803,422.381805 568.660095,424.851501 
	C565.643494,426.391510 562.447266,427.489014 560.158936,424.299377 
	C559.094543,422.815765 558.922546,420.082855 559.487061,418.271973 
	C559.817017,417.213806 562.395447,416.279602 563.967102,416.271973 
	C589.088257,416.149902 614.210571,416.130341 639.331177,416.303680 
	C641.151489,416.316254 643.593750,417.558411 644.597778,419.018860 
	C645.615906,420.499725 645.886780,423.268463 645.159912,424.872833 
	C644.750305,425.777069 641.587036,425.920959 639.807068,425.604279 
	C637.054749,425.114594 634.440186,423.886902 631.739014,423.064728 
	C628.613770,422.113525 626.865723,423.185577 625.823975,426.452972 
	C624.832092,429.563843 624.974060,431.582458 628.437927,432.543091 
	C629.040588,432.710236 629.550171,433.213043 630.122864,433.573456 
	C626.557434,437.621368 621.191101,437.902710 616.103760,434.005829 
	C613.217468,431.794922 610.590393,429.182770 608.137024,426.487030 
	C605.691223,423.799591 603.669067,423.697540 601.098450,426.300354 
	C598.758240,428.670013 597.768188,430.664154 600.640198,433.398804 
	C601.948486,434.644531 602.617554,436.561615 603.576660,438.174164 
	C601.480713,438.656403 599.384766,439.138672 596.942993,439.444641 
z"/>
<path fill="#F5E2C5" opacity="1.000000" stroke="none" 
	d="
M720.199585,418.344116 
	C718.160217,421.042267 716.643555,424.278442 714.147278,425.480743 
	C711.278870,426.862274 710.625366,428.356049 710.696594,431.098175 
	C710.768738,433.879089 710.824585,436.060272 714.285767,437.212006 
	C718.655029,438.665955 721.085999,443.864075 720.242859,448.123993 
	C719.403320,452.365662 715.229309,456.340759 711.443665,456.503815 
	C706.668213,456.709503 701.148071,453.185089 700.943054,448.440002 
	C700.669434,442.108612 697.628906,441.435425 692.378052,441.657562 
	C683.233337,442.044464 683.213013,441.759705 685.220032,433.031067 
	C685.555420,431.572906 686.214844,430.160248 686.354736,428.691345 
	C686.898010,422.987244 689.730774,420.364441 695.584595,421.289246 
	C698.909546,421.814545 700.158813,420.378357 700.453613,416.894745 
	C700.993652,410.512207 705.753784,406.248108 711.144165,406.547913 
	C717.005737,406.873901 720.059570,410.692474 720.199585,418.344116 
z"/>
<path fill="#F4E2C5" opacity="1.000000" stroke="none" 
	d="
M531.085327,550.847229 
	C538.071960,550.849304 544.575073,550.979980 551.069885,550.802734 
	C554.631165,550.705627 556.161194,551.815918 556.117920,555.630432 
	C555.957092,569.794556 556.055481,583.961670 556.049988,598.127625 
	C556.048645,601.681885 555.484192,605.436829 551.114014,605.357971 
	C546.797852,605.280151 545.956177,601.403259 546.316589,597.957336 
	C547.036316,591.074829 547.860229,584.158325 549.376831,577.421509 
	C550.234192,573.612976 550.118225,571.769226 545.937988,570.453857 
	C541.683716,569.115356 540.514526,570.926575 539.785950,574.372986 
	C539.547241,575.502686 539.235596,576.738953 538.562073,577.626587 
	C537.501526,579.024048 536.106445,580.167603 534.853027,581.418701 
	C533.808044,579.379578 531.898010,577.326416 531.930908,575.304810 
	C531.974731,572.610229 533.414551,569.894348 534.462830,567.270752 
	C535.898621,563.677124 534.825562,561.942017 531.118103,560.617249 
	C527.326599,559.262390 525.931152,560.603394 525.026306,563.900818 
	C524.454224,565.985901 523.860657,568.114075 522.882446,570.020630 
	C522.278748,571.197266 520.985413,572.669739 519.905640,572.752258 
	C518.999390,572.821472 517.576782,571.245422 517.043396,570.092285 
	C515.615295,567.004395 514.315979,563.811829 513.453491,560.532532 
	C513.162109,559.424561 514.039856,557.690613 514.887512,556.655640 
	C518.950928,551.693909 524.460449,550.353271 531.085327,550.847229 
z"/>
<path fill="#F4E2C5" opacity="1.000000" stroke="none" 
	d="
M653.997314,446.876923 
	C646.407898,446.876801 639.317932,446.876801 632.227966,446.876801 
	C632.055481,446.441376 631.882935,446.005951 631.710388,445.570526 
	C637.122620,442.042755 642.291199,438.036926 648.014832,435.120483 
	C653.844299,432.150146 656.653015,428.328613 655.808899,420.632904 
	C655.438416,417.255188 656.302124,416.061646 659.643738,416.156616 
	C664.630615,416.298370 669.625488,416.253723 674.615051,416.172760 
	C677.667297,416.123230 678.931580,417.239380 678.121948,420.397919 
	C676.141479,428.123566 674.446899,435.930756 672.160522,443.562347 
	C671.729126,445.002167 669.172302,446.534607 667.457397,446.716797 
	C663.179810,447.171173 658.822205,446.873108 653.997314,446.876923 
z"/>
<path fill="#F4E2C5" opacity="1.000000" stroke="none" 
	d="
M677.822998,540.613953 
	C673.921997,544.308594 671.956055,544.044617 671.127136,539.865906 
	C669.596497,532.150024 668.251038,524.397339 666.778809,516.390503 
	C670.986084,516.390503 675.996765,516.390503 682.471741,516.390503 
	C680.937622,524.648499 679.482788,532.479553 677.822998,540.613953 
z"/>
<path fill="#F5E2C5" opacity="1.000000" stroke="none" 
	d="
M596.286377,671.157288 
	C600.318909,668.813538 603.450378,670.657227 606.216553,672.735474 
	C609.195618,674.973755 611.835144,675.573853 615.328125,673.781372 
	C619.722473,671.526550 620.838074,672.395630 620.989258,677.306519 
	C621.231384,685.170898 621.154297,684.480591 613.265442,685.361694 
	C604.992188,686.285767 599.862183,682.675232 595.383972,676.603516 
	C593.786926,674.438110 593.405151,672.850708 596.286377,671.157288 
z"/>
<path fill="#F4F6FA" opacity="1.000000" stroke="none" 
	d="
M733.147339,828.126404 
	C723.433044,837.157349 713.747620,846.219788 703.972900,855.184875 
	C702.526855,856.511230 700.785706,857.801758 698.953979,858.349976 
	C696.620239,859.048462 694.055420,858.974487 691.590210,859.233521 
	C691.553711,856.679260 690.567627,853.559509 691.681030,851.690125 
	C693.906067,847.954224 696.649719,843.652161 700.302246,841.807678 
	C710.740173,836.536621 721.740356,832.379089 732.863342,827.973022 
	C733.207214,828.162415 733.147339,828.126404 733.147339,828.126404 
z"/>
<path fill="#F3F6FA" opacity="1.000000" stroke="none" 
	d="
M650.693054,845.361206 
	C647.120117,849.570496 643.686951,853.413635 640.439331,857.049072 
	C635.485840,852.892883 631.632812,849.660095 627.461914,846.160583 
	C634.313232,839.727722 641.532776,832.949158 649.406494,825.556396 
	C650.966858,832.470032 652.661316,838.557068 650.693054,845.361206 
z"/>
<path fill="#F4F7FA" opacity="1.000000" stroke="none" 
	d="
M592.560059,835.520630 
	C593.910828,845.660278 590.083679,851.971863 580.547180,856.125854 
	C576.768372,852.899414 573.048462,849.723267 568.787476,846.085144 
	C575.526428,839.767761 582.686523,833.055603 590.725952,825.519165 
	C591.441040,829.437744 591.957092,832.265747 592.560059,835.520630 
z"/>
<path fill="#EDF1F9" opacity="1.000000" stroke="none" 
	d="
M784.062378,822.063721 
	C785.560730,819.005554 786.531250,815.507629 788.648987,812.965393 
	C797.758728,802.029602 807.190857,791.361755 816.558594,780.642639 
	C817.257019,779.843506 818.373901,779.410156 819.964111,779.415466 
	C811.200195,796.060059 797.807129,808.873291 784.335571,821.946533 
	C784.018921,822.012817 784.062378,822.063721 784.062378,822.063721 
z"/>
<path fill="#EDF1F9" opacity="1.000000" stroke="none" 
	d="
M783.997620,821.986938 
	C783.888062,821.960938 783.799866,821.960693 783.886963,822.012085 
	C784.062378,822.063721 784.018921,822.012817 783.997620,821.986938 
z"/>
<path fill="#F4F6FA" opacity="1.000000" stroke="none" 
	d="
M733.237061,828.180603 
	C733.179932,828.079163 733.092957,827.959534 733.005981,827.839844 
	C733.109863,827.842773 733.213745,827.845703 733.232483,827.987549 
	C733.147339,828.126404 733.207214,828.162415 733.237061,828.180603 
z"/>
<path fill="#FAFBFB" opacity="1.000000" stroke="none" 
	d="
M722.870239,851.775269 
	C723.099792,851.645935 723.661499,851.762634 724.052979,852.185303 
	C723.656067,852.334595 723.429321,852.177979 722.870239,851.775269 
z"/>
<path fill="#84A2DB" opacity="1.000000" stroke="none" 
	d="
M590.989258,574.985046 
	C583.564270,576.108948 577.352722,574.332214 573.828552,567.129517 
	C573.144775,565.731934 573.052307,562.593567 573.718811,562.247986 
	C576.109741,561.008240 578.666016,558.299194 581.750977,561.238831 
	C585.944885,565.235229 587.056396,565.227478 589.019470,559.734253 
	C590.892578,554.492920 593.724121,551.014709 599.053772,548.983398 
	C603.754028,547.191895 606.839050,542.706055 606.462708,537.986389 
	C605.877441,530.647766 610.614380,531.155212 614.931946,530.288025 
	C618.532166,537.724060 616.947266,548.398071 609.065186,553.673828 
	C600.890381,559.145569 597.125732,567.530334 591.036133,574.704956 
	C590.936401,575.032471 590.970215,574.999084 590.989258,574.985046 
z"/>
</svg>